<svg xmlns="http://www.w3.org/2000/svg" width="20" height="20" fill="none"><path fill="#1966FF" d="M16.66 15.794h-4.745a.847.847 0 0 0-.84.853c0 .471.377.853.84.853h4.745c.463 0 .84-.382.84-.853a.847.847 0 0 0-.84-.853" opacity=".4"/><path fill="#1966FF" d="m8.59 5.753 4.497 3.634a.26.26 0 0 1 .043.357L7.799 16.69a1.75 1.75 0 0 1-1.358.681l-2.91.036a.33.33 0 0 1-.326-.26l-.662-2.875c-.115-.53 0-1.075.335-1.497l5.357-6.979a.25.25 0 0 1 .356-.043"/><path fill="#1966FF" d="m15.1 7.221-.866 1.082a.25.25 0 0 1-.353.04c-1.054-.852-3.752-3.04-4.501-3.647a.257.257 0 0 1-.036-.36l.836-1.038c.758-.977 2.081-1.066 3.148-.215l1.226.976c.502.394.838.914.952 1.46.133.601-.009 1.192-.405 1.702" opacity=".4"/></svg>