<svg xmlns="http://www.w3.org/2000/svg" width="20" height="20" fill="none"><path fill="#1966FF" d="M13.403 2.14a.398.398 0 0 0-.684.278v2.197c0 .922.76 1.68 1.681 1.68.58.007 1.388.009 2.073.007.35 0 .529-.42.285-.673z" opacity=".4"/><path fill="#1966FF" d="M15.674 7.518c-.376 0-.874-.009-1.495-.009-1.513 0-2.758-1.252-2.758-2.78V2.05a.38.38 0 0 0-.377-.382H6.636c-2.057 0-3.72 1.688-3.72 3.757v8.98c0 2.17 1.743 3.93 3.892 3.93h6.564c2.05 0 3.711-1.678 3.711-3.749V7.893a.377.377 0 0 0-.377-.382c-.352.002-.774.007-1.032.007"/><path fill="#fff" fill-rule="evenodd" d="M7.478 9.49H10.3a.62.62 0 1 0 0-1.241h-2.82a.62.62 0 0 0 0 1.24m0 4.161h4.537a.62.62 0 1 0 0-1.24H7.478a.62.62 0 0 0 0 1.24" clip-rule="evenodd"/></svg>